<svg width="48" height="48" viewBox="0 0 48 48" fill="none" xmlns="http://www.w3.org/2000/svg">
<path opacity="0.4" d="M47.3332 24.0115C47.3332 36.8656 36.8602 47.3335 23.9998 47.3335C11.1395 47.3335 0.666504 36.8656 0.666504 24.0115C0.666504 11.1348 11.1395 0.66687 23.9998 0.66687C36.8602 0.66687 47.3332 11.1348 47.3332 24.0115Z" fill="white"/>
<path d="M18.0005 29.9999C18.0005 30.5522 18.4482 30.9999 19.0005 30.9999H21.0005C21.5528 30.9999 22.0005 30.5522 22.0005 29.9999V17.9999C22.0005 17.4476 21.5528 16.9999 21.0005 16.9999H19.0005C18.4482 16.9999 18.0005 17.4476 18.0005 17.9999V29.9999ZM27.0005 16.9999C26.4482 16.9999 26.0005 17.4476 26.0005 17.9999V29.9999C26.0005 30.5522 26.4482 30.9999 27.0005 30.9999H29.0005C29.5528 30.9999 30.0005 30.5522 30.0005 29.9999V17.9999C30.0005 17.4476 29.5528 16.9999 29.0005 16.9999H27.0005Z" fill="white"/>
</svg>
