<svg width="48" height="48" viewBox="0 0 48 48" fill="none" xmlns="http://www.w3.org/2000/svg">
<path opacity="0.4" d="M47.3332 24.0112C47.3332 36.8654 36.8602 47.3333 23.9998 47.3333C11.1395 47.3333 0.666504 36.8654 0.666504 24.0112C0.666504 11.1345 11.1395 0.666626 23.9998 0.666626C36.8602 0.666626 47.3332 11.1345 47.3332 24.0112" fill="white"/>
<path d="M33.3333 24.0113C33.3333 24.601 33.1477 25.193 32.7765 25.667C32.7069 25.76 32.3821 26.1433 32.1269 26.3928L31.9877 26.5289C30.0388 28.5952 25.1899 31.7025 22.7306 32.6982C22.7306 32.7209 21.2689 33.3129 20.5729 33.3333H20.4801C19.4129 33.3333 18.4152 32.7458 17.9048 31.7932C17.6264 31.2693 17.3712 29.7497 17.348 29.7292C17.1392 28.3661 17 26.2794 17 23.9886C17 21.5867 17.1392 19.407 17.3944 18.0688C17.3944 18.0461 17.6496 16.8213 17.812 16.4131C18.0672 15.8256 18.5312 15.3244 19.1113 15.0068C19.5753 14.7823 20.0625 14.6666 20.5729 14.6666C21.1065 14.6916 22.1042 15.0295 22.4986 15.1883C25.0971 16.1863 30.062 19.4524 31.9645 21.4483C32.2893 21.7659 32.6373 22.1537 32.7301 22.2422C33.1245 22.7411 33.3333 23.3535 33.3333 24.0113" fill="white"/>
</svg>
