<svg width="28" height="28" viewBox="0 0 28 28" fill="none" xmlns="http://www.w3.org/2000/svg">
<path d="M8.16667 9.33301C8.16667 8.68868 8.689 8.16634 9.33333 8.16634H18.8082C19.3744 8.16634 19.8333 8.62531 19.8333 9.19147C19.8333 10.1048 20.9375 10.5621 21.5833 9.91634L23.675 7.82463C24.1307 7.36902 24.1307 6.63033 23.675 6.17472L21.5833 4.08301C20.9375 3.43721 19.8333 3.89459 19.8333 4.80788C19.8333 5.37404 19.3744 5.83301 18.8082 5.83301H7C6.35567 5.83301 5.83333 6.35534 5.83333 6.99967V11.6663C5.83333 12.3107 6.35567 12.833 7 12.833C7.64433 12.833 8.16667 12.3107 8.16667 11.6663V9.33301ZM19.8333 18.6663C19.8333 19.3107 19.311 19.833 18.6667 19.833H9.19179C8.62563 19.833 8.16667 19.374 8.16667 18.8079C8.16667 17.8946 7.06246 17.4372 6.41667 18.083L4.32496 20.1747C3.86935 20.6303 3.86935 21.369 4.32496 21.8246L6.41667 23.9163C7.06246 24.5621 8.16667 24.1048 8.16667 23.1915C8.16667 22.6253 8.62563 22.1663 9.19179 22.1663H21C21.6443 22.1663 22.1667 21.644 22.1667 20.9997V16.333C22.1667 15.6887 21.6443 15.1663 21 15.1663C20.3557 15.1663 19.8333 15.6887 19.8333 16.333V18.6663Z" fill="#9D9EA1"/>
</svg>
