<svg width="24" height="24" viewBox="0 0 24 24" fill="none" xmlns="http://www.w3.org/2000/svg">
<path d="M11.2929 6.70711C10.9024 6.31658 10.9024 5.68342 11.2929 5.29289C11.6834 4.90237 12.3166 4.90237 12.7071 5.29289L18.7071 11.2929C19.0857 11.6715 19.0989 12.2811 18.7372 12.6757L13.2372 18.6757C12.864 19.0828 12.2314 19.1103 11.8243 18.7372C11.4172 18.364 11.3897 17.7314 11.7628 17.3243L16.6159 12.0301L11.2929 6.70711Z" fill="#C1C2C4"/>
<path opacity="0.3" d="M4.29289 6.70711C3.90237 6.31658 3.90237 5.68342 4.29289 5.29289C4.68342 4.90237 5.31658 4.90237 5.70711 5.29289L11.7071 11.2929C12.0857 11.6715 12.0989 12.2811 11.7372 12.6757L6.23715 18.6757C5.86396 19.0828 5.23139 19.1103 4.82428 18.7372C4.41716 18.364 4.38965 17.7314 4.76285 17.3243L9.61586 12.0301L4.29289 6.70711Z" fill="#C1C2C4"/>
</svg>
